<svg width="60" height="60" viewBox="0 0 60 60" fill="none" xmlns="http://www.w3.org/2000/svg">
<g id="Group 1">
<path id="Vector" d="M14.4331 25.5311V20.71C14.4331 20.4246 14.4331 20.3105 14.8112 20.3105C18.0527 20.3105 20.6874 20.1212 21.9956 20.8812C23.3068 21.6382 23.3617 22.6835 23.383 22.9959C23.4044 23.3083 23.3952 23.7558 22.7854 24.8462C22.1755 25.9366 19.4463 25.9576 17.4764 25.9576H14.8692C14.549 25.9576 14.4331 25.8435 14.4331 25.5311ZM23.4166 30.5835C23.7186 30.9633 23.9342 31.4026 24.0487 31.8716C24.1632 32.3407 24.174 32.8285 24.0803 33.302C23.9866 33.7755 23.7906 34.2236 23.5056 34.6159C23.2206 35.0083 22.8533 35.3356 22.4286 35.5759C21.8047 35.8344 21.1355 35.9701 20.4587 35.9754H14.8387C14.549 35.9754 14.4331 35.9754 14.4331 35.6059V29.8986C14.4331 29.6133 14.4331 29.4991 14.8112 29.4991H18.5467C20.8642 29.4991 22.3127 29.3009 23.4166 30.5835Z" fill="#64127F"/>
<path id="Vector_2" d="M44.6445 28.9548C44.4883 28.5867 44.2514 28.2583 43.9511 27.9942C43.6509 27.73 43.2951 27.5368 42.91 27.4288C42.1404 27.2185 41.3348 27.174 40.5467 27.2981C39.7585 27.4222 39.0057 27.7122 38.338 28.1489C37.6725 28.8213 37.2425 29.691 37.1122 30.628C37.1122 30.9559 37.1122 31.0172 37.5014 31.0172H44.764C45.1225 31.0172 45.1225 31.0172 45.0919 30.5667C45.0575 30.0036 44.9071 29.4542 44.6445 28.9548ZM44.6445 28.9548C44.4883 28.5867 44.2483 28.2583 43.9481 27.9942C43.6478 27.73 43.2951 27.5368 42.91 27.4288C42.1404 27.2185 41.3348 27.174 40.5467 27.2981C39.7585 27.4222 39.0057 27.7122 38.338 28.1489C37.6725 28.8213 37.2394 29.691 37.1091 30.628C37.1091 30.9559 37.1091 31.0172 37.4983 31.0172H44.764C45.1225 31.0172 45.1225 31.0172 45.0919 30.5667C45.0575 30.0036 44.9009 29.4542 44.6383 28.9548M48.049 0.12207H12.1957C9.02609 0.12207 5.98629 1.3812 3.74502 3.62246C1.50376 5.86373 0.244629 8.90353 0.244629 12.0732V47.9264C0.244629 51.0961 1.50376 54.1359 3.74502 56.3771C5.98629 58.6184 9.02609 59.8775 12.1957 59.8775H48.049C51.2186 59.8775 54.2584 58.6184 56.4997 56.3771C58.7409 54.1359 60.0001 51.0961 60.0001 47.9264V12.0732C60.0001 8.90353 58.7409 5.86373 56.4997 3.62246C54.2584 1.3812 51.2186 0.12207 48.049 0.12207ZM36.3369 19.1519C36.3369 18.9159 36.3369 18.824 36.6066 18.824H46.287V21.3368C46.287 21.3368 46.2962 21.5145 46.1368 21.5145H36.7567C36.3369 21.5145 36.3369 21.5145 36.3369 21.0978V19.1519ZM27.3736 41.1143C23.6963 43.1153 17.5155 42.3094 10.1947 42.3094V17.54H21.8761C24.8639 17.54 28.4186 18.2877 29.3746 21.4532C29.8711 22.8358 29.8409 24.3528 29.2898 25.7145C28.7386 27.0763 27.7052 28.1873 26.3869 28.8353C27.6021 29.285 28.663 30.0734 29.4441 31.1073C30.2252 32.1411 30.6937 33.377 30.7943 34.6689C30.8949 35.9607 30.6233 37.2543 30.0116 38.3965C29.4 39.5388 28.4739 40.4819 27.343 41.1143H27.3736ZM49.6333 34.0632H37.6822C37.3543 34.0632 37.054 34.2409 37.1122 34.6607C37.4707 36.4227 38.2767 38.2767 40.103 38.5464C41.0674 38.8334 42.1001 38.7892 43.0365 38.421C43.9729 38.0528 44.759 37.3817 45.2696 36.5147C45.2696 36.5147 45.4197 36.3339 45.5086 36.3339H49.3942C49.3942 36.3339 49.6333 36.3339 49.572 36.5422C49.1622 37.7026 48.5558 38.7837 47.7793 39.7384C46.7408 40.7304 45.4877 41.4697 44.1172 41.899C42.7467 42.3282 41.2957 42.4359 39.8769 42.2136C38.458 41.9913 37.1095 41.445 35.936 40.6172C34.7625 39.7893 33.7955 38.7022 33.1101 37.4401C32.6886 36.5985 32.4258 35.6864 32.3348 34.7496C31.8019 32.3949 32.2092 29.9252 33.4702 27.8663C34.7311 25.8075 36.746 24.3223 39.0857 23.727C45.8671 22.2622 50.1695 26.9232 50.1695 33.4963C50.1796 33.5731 50.1718 33.6512 50.1469 33.7245C50.122 33.7979 50.0805 33.8646 50.0257 33.9193C49.9709 33.9741 49.9043 34.0156 49.8309 34.0405C49.7576 34.0655 49.6795 34.0732 49.6026 34.0632H49.6333ZM42.9407 27.4288C42.1717 27.2155 41.3656 27.1716 40.578 27.3001C39.7905 27.4226 39.0857 27.5728 38.3686 28.1489C37.6515 28.7219 37.2716 29.6903 37.1429 30.628C37.1429 30.9559 37.1429 31.0172 37.532 31.0172H44.764C45.1225 31.0172 45.1225 31.0172 45.0919 30.5667C45.0575 30.0036 44.9071 29.4542 44.6445 28.9548C44.4883 28.5867 44.2514 28.2583 43.9511 27.9942C43.6509 27.73 43.2951 27.5368 42.91 27.4288H42.9407Z" fill="#64127F"/>
</g>
</svg>
