<svg width="61" height="60" viewBox="0 0 61 60" fill="none" xmlns="http://www.w3.org/2000/svg">
<path id="Vector" d="M33.6354 0C37.0665 0.00899978 38.808 0.0269993 40.3116 0.0689983L40.9032 0.0899977C41.5864 0.113997 42.2604 0.143996 43.0747 0.179995C46.3197 0.329992 48.5339 0.83398 50.4767 1.57496C52.4896 2.33694 54.1853 3.36892 55.881 5.03388C57.4325 6.53304 58.6325 8.34721 59.3975 10.3497C60.1508 12.2607 60.6632 14.4387 60.8157 17.6336C60.8523 18.4316 60.8828 19.0945 60.9072 19.7695L60.9255 20.3515C60.9712 21.8275 60.9895 23.5404 60.9956 26.9153L60.9987 29.1533V33.0832C61.0061 35.2714 60.9827 37.4595 60.9285 39.647L60.9102 40.229C60.8858 40.904 60.8553 41.567 60.8187 42.365C60.6662 45.5599 60.1478 47.7348 59.3975 49.6488C58.6325 51.6513 57.4325 53.4655 55.881 54.9647C54.3569 56.4907 52.5125 57.6712 50.4767 58.4236C48.5339 59.1646 46.3197 59.6686 43.0747 59.8186L40.9032 59.9086L40.3116 59.9266C38.808 59.9685 37.0665 59.9895 33.6354 59.9955L31.3603 59.9986H27.368C25.1424 60.0063 22.9168 59.9833 20.6919 59.9296L20.1002 59.9116C19.3762 59.8846 18.6524 59.8536 17.9287 59.8186C14.6837 59.6686 12.4695 59.1646 10.5237 58.4236C8.48894 57.6708 6.64565 56.4904 5.12243 54.9647C3.56989 53.4658 2.36875 51.6516 1.6029 49.6488C0.849592 47.7378 0.337218 45.5599 0.184725 42.365L0.09323 40.229L0.0779812 39.647C0.0217605 37.4595 -0.00365766 35.2714 0.00173474 33.0832V26.9153C-0.00670691 24.7272 0.015661 22.539 0.0688316 20.3515L0.0901804 19.7695C0.114579 19.0945 0.145078 18.4316 0.181676 17.6336C0.334168 14.4387 0.846542 12.2637 1.59985 10.3497C2.36748 8.34639 3.57074 6.53215 5.12548 5.03388C6.64782 3.50856 8.49003 2.32816 10.5237 1.57496C12.4695 0.83398 14.6806 0.329992 17.9287 0.179995C18.74 0.143996 19.4171 0.113997 20.1002 0.0899977L20.6919 0.071998C22.9158 0.0186977 25.1404 -0.00430399 27.365 0.00299971L33.6354 0ZM30.5002 14.9996C26.4558 14.9996 22.5771 16.58 19.7174 19.3929C16.8576 22.2059 15.251 26.0211 15.251 29.9993C15.251 33.9774 16.8576 37.7926 19.7174 40.6056C22.5771 43.4186 26.4558 44.9989 30.5002 44.9989C34.5445 44.9989 38.4232 43.4186 41.283 40.6056C44.1428 37.7926 45.7494 33.9774 45.7494 29.9993C45.7494 26.0211 44.1428 22.2059 41.283 19.3929C38.4232 16.58 34.5445 14.9996 30.5002 14.9996ZM30.5002 20.9995C31.7017 20.9993 32.8915 21.2319 34.0017 21.684C35.1118 22.1361 36.1206 22.7988 36.9703 23.6344C37.8201 24.47 38.4942 25.462 38.9542 26.5538C39.4142 27.6456 39.6511 28.8159 39.6513 29.9978C39.6515 31.1796 39.415 32.35 38.9554 33.442C38.4958 34.5339 37.822 35.5262 36.9725 36.362C36.123 37.1979 35.1145 37.861 34.0045 38.3134C32.8945 38.7659 31.7048 38.9989 30.5032 38.9991C28.0766 38.9991 25.7494 38.0509 24.0335 36.3631C22.3177 34.6753 21.3537 32.3862 21.3537 29.9993C21.3537 27.6124 22.3177 25.3233 24.0335 23.6355C25.7494 21.9477 28.0766 20.9995 30.5032 20.9995M46.5149 10.4997C45.5038 10.4997 44.5342 10.8948 43.8192 11.5981C43.1043 12.3013 42.7026 13.2551 42.7026 14.2497C42.7026 15.2442 43.1043 16.198 43.8192 16.9012C44.5342 17.6045 45.5038 17.9996 46.5149 17.9996C47.526 17.9996 48.4957 17.6045 49.2106 16.9012C49.9256 16.198 50.3272 15.2442 50.3272 14.2497C50.3272 13.2551 49.9256 12.3013 49.2106 11.5981C48.4957 10.8948 47.526 10.4997 46.5149 10.4997Z" fill="#64127F"/>
</svg>
