<svg width="62" height="60" viewBox="0 0 62 60" fill="none" xmlns="http://www.w3.org/2000/svg">
<path id="Vector" d="M12.1983 0C5.62474 0 0.244629 5.29179 0.244629 11.7578V48.2442C0.244629 54.71 5.62462 60 12.1983 60H49.2929C55.8665 60 61.2446 54.7101 61.2446 48.2442V11.7578C61.2446 5.29191 55.8665 0 49.2929 0H12.1983ZM15.2049 9.90121C18.3568 9.90121 20.2982 11.9365 20.3582 14.6118C20.3582 17.228 18.3567 19.3205 15.1439 19.3205H15.0848C11.9929 19.3205 9.99443 17.2281 9.99443 14.6118C9.99443 11.9365 12.0534 9.90121 15.2048 9.90121H15.2049ZM42.3666 22.4053C48.4284 22.4053 52.9725 26.3023 52.9725 34.6768V50.3106H43.7603V35.725C43.7603 32.0598 42.4271 29.5592 39.0932 29.5592C36.5482 29.5592 35.0312 31.2446 34.3651 32.8728C34.1218 33.4553 34.062 34.2688 34.062 35.0837V50.3106H24.8498C24.8498 50.3106 24.9707 25.603 24.8498 23.0447H34.0639V26.9058C35.2881 25.048 37.4779 22.4052 42.3666 22.4052V22.4053ZM10.5378 23.0467H19.75V50.3107H10.5378V23.0467Z" fill="#64127F"/>
</svg>
